# xmcd CD database file
#
# Track frame offsets:
#	150
#	18148
#	38158
#	56175
#	78136
#	93440
#	107206
#	124751
#	137810
#	159223
#	172078
#	183532
#	201581
#	210739
#	225465
#	246836
#
# Disc length: 3469 seconds
#
# Revision: 0
# Processed by: cddbd v1.4PL0 Copyright (c) Steve Scherf et al.
# Submitted via: CDex 1.50Beta7
#
DISCID=da0d8b10
DTITLE=Country CS 2003 - BEST OF BEST
DYEAR=2001
DGENRE=Country
TTITLE0=black
TTITLE1=cekani
TTITLE2=peklo
TTITLE3=dlouha cesta k vrcholum
TTITLE4=full
TTITLE5=jan car song
TTITLE6=katy benzinova pumpa
TTITLE7=kdyz jsem sam
TTITLE8=liker z modrinu
TTITLE9=zebricku
TTITLE10=balon
TTITLE11=odkoni
TTITLE12=rana
TTITLE13=tak mne teda rekni bracho
TTITLE14=zalozpev predsedy jzd zdar
TTITLE15=zubata
EXTD=YEAR: 2001
EXTT0=
EXTT1=
EXTT2=
EXTT3=
EXTT4=
EXTT5=
EXTT6=
EXTT7=
EXTT8=
EXTT9=
EXTT10=
EXTT11=
EXTT12=
EXTT13=
EXTT14=
EXTT15=
PLAYORDER=
